<svg width="40" height="41" viewBox="0 0 40 41" fill="none" xmlns="http://www.w3.org/2000/svg">
<path d="M23.333 14.7501C23.5028 14.5495 23.7128 14.3861 23.9497 14.2706C24.1866 14.155 24.4451 14.0897 24.7088 14.0788C24.9725 14.0679 25.2356 14.1117 25.4813 14.2074C25.727 14.303 25.9499 14.4485 26.1359 14.6344C26.3218 14.8204 26.4668 15.0428 26.5614 15.2875C26.656 15.5321 26.6982 15.7937 26.6854 16.0554C26.6726 16.3172 26.605 16.5734 26.4869 16.8078C26.3689 17.0422 26.2029 17.2496 25.9997 17.4168L16.9997 26.4168L13.333 27.4168L14.333 23.7501L23.333 14.7501Z" stroke="black" stroke-width="1.33333" stroke-linecap="round" stroke-linejoin="round"/>
<path d="M22 16.0835L24.6667 18.7502" stroke="black" stroke-width="1.33333" stroke-linecap="round" stroke-linejoin="round"/>
</svg>
