<svg width="32" height="32" viewBox="0 0 32 32" fill="none" xmlns="http://www.w3.org/2000/svg">
<path d="M15.9998 29.3333C23.3636 29.3333 29.3332 23.3638 29.3332 16C29.3332 8.6362 23.3636 2.66667 15.9998 2.66667C8.63604 2.66667 2.6665 8.6362 2.6665 16C2.6665 23.3638 8.63604 29.3333 15.9998 29.3333Z" stroke="white" stroke-width="2.66667" stroke-linecap="round" stroke-linejoin="round"/>
<path d="M16 17.3333C18.2091 17.3333 20 15.5425 20 13.3333C20 11.1242 18.2091 9.33333 16 9.33333C13.7909 9.33333 12 11.1242 12 13.3333C12 15.5425 13.7909 17.3333 16 17.3333Z" stroke="white" stroke-width="2.66667" stroke-linecap="round" stroke-linejoin="round"/>
<path d="M9.3335 27.5493V25.3333C9.3335 24.6261 9.61445 23.9478 10.1145 23.4477C10.6146 22.9476 11.2929 22.6667 12.0002 22.6667H20.0002C20.7074 22.6667 21.3857 22.9476 21.8858 23.4477C22.3859 23.9478 22.6668 24.6261 22.6668 25.3333V27.5493" stroke="white" stroke-width="2.66667" stroke-linecap="round" stroke-linejoin="round"/>
</svg>
