<svg width="17" height="16" viewBox="0 0 17 16" fill="none" xmlns="http://www.w3.org/2000/svg">
<path d="M11.1619 14V12.6667C11.1619 11.9594 10.881 11.2811 10.3809 10.781C9.8808 10.281 9.20252 10 8.49528 10H4.49528C3.78804 10 3.10976 10.281 2.60966 10.781C2.10956 11.2811 1.82861 11.9594 1.82861 12.6667V14" stroke="white" stroke-width="1.33333" stroke-linecap="round" stroke-linejoin="round"/>
<path d="M6.49528 7.33333C7.96804 7.33333 9.16195 6.13943 9.16195 4.66667C9.16195 3.19391 7.96804 2 6.49528 2C5.02252 2 3.82861 3.19391 3.82861 4.66667C3.82861 6.13943 5.02252 7.33333 6.49528 7.33333Z" stroke="white" stroke-width="1.33333" stroke-linecap="round" stroke-linejoin="round"/>
<path d="M13.1616 5.33325V9.33325" stroke="white" stroke-width="1.33333" stroke-linecap="round" stroke-linejoin="round"/>
<path d="M15.1616 7.33325H11.1616" stroke="white" stroke-width="1.33333" stroke-linecap="round" stroke-linejoin="round"/>
</svg>
