<svg width="17" height="16" viewBox="0 0 17 16" fill="none" xmlns="http://www.w3.org/2000/svg">
<path d="M11.1571 14V12.6667C11.1571 11.9594 10.8761 11.2811 10.376 10.781C9.87592 10.281 9.19764 10 8.4904 10H4.4904C3.78315 10 3.10488 10.281 2.60478 10.781C2.10468 11.2811 1.82373 11.9594 1.82373 12.6667V14" stroke="white" stroke-width="1.33333" stroke-linecap="round" stroke-linejoin="round"/>
<path d="M6.4904 7.33333C7.96316 7.33333 9.15706 6.13943 9.15706 4.66667C9.15706 3.19391 7.96316 2 6.4904 2C5.01764 2 3.82373 3.19391 3.82373 4.66667C3.82373 6.13943 5.01764 7.33333 6.4904 7.33333Z" stroke="white" stroke-width="1.33333" stroke-linecap="round" stroke-linejoin="round"/>
<path d="M15.1567 14V12.6667C15.1563 12.0758 14.9596 11.5019 14.5976 11.0349C14.2357 10.5679 13.7288 10.2344 13.1567 10.0867" stroke="white" stroke-width="1.33333" stroke-linecap="round" stroke-linejoin="round"/>
<path d="M11.1567 2.08667C11.7303 2.23354 12.2388 2.56714 12.6018 3.03488C12.9649 3.50262 13.162 4.07789 13.162 4.67C13.162 5.26212 12.9649 5.83739 12.6018 6.30513C12.2388 6.77287 11.7303 7.10647 11.1567 7.25334" stroke="white" stroke-width="1.33333" stroke-linecap="round" stroke-linejoin="round"/>
</svg>
